<mxfile host="Electron" modified="2024-02-08T12:54:08.245Z" agent="Mozilla/5.0 (Windows NT 10.0; Win64; x64) AppleWebKit/537.36 (KHTML, like Gecko) draw.io/22.1.21 Chrome/120.0.6099.109 Electron/28.1.0 Safari/537.36" etag="PupErbOHW94RncQx228I" version="22.1.21" type="device">
  <diagram name="PÃ¡gina-1" id="v6VREYbtbieo0hLEOLFr">
    <mxGraphModel dx="2358" dy="2294" grid="1" gridSize="10" guides="1" tooltips="1" connect="1" arrows="1" fold="1" page="1" pageScale="1" pageWidth="827" pageHeight="1169" math="0" shadow="0">
      <root>
        <mxCell id="0" />
        <mxCell id="1" parent="0" />
        <mxCell id="72K2tE1iyLVGwKvSBgtS-35" value="CHANGE&amp;lt;= 1 when ((INCR_DECR = &#39;1&#39;) and (UP/DOWN = &#39;1&#39;) and (CURSOR_MAX = &#39;0&#39;))&lt;br&gt;or ((INCR_DECR = &#39;1&#39;) and (UP/DOWN = &#39;0&#39;) and (CURSOR_MIN = &#39;0&#39;))&lt;br&gt;&amp;nbsp;else &#39;0&#39;&amp;nbsp;" style="text;html=1;align=center;verticalAlign=middle;resizable=0;points=[];autosize=1;strokeColor=none;fillColor=none;" parent="1" vertex="1">
          <mxGeometry y="600" width="510" height="60" as="geometry" />
        </mxCell>
        <mxCell id="72K2tE1iyLVGwKvSBgtS-56" value="" style="group" parent="1" vertex="1" connectable="0">
          <mxGeometry x="10" y="150" width="310" height="190" as="geometry" />
        </mxCell>
        <mxCell id="72K2tE1iyLVGwKvSBgtS-6" style="edgeStyle=orthogonalEdgeStyle;rounded=0;orthogonalLoop=1;jettySize=auto;html=1;" parent="72K2tE1iyLVGwKvSBgtS-56" source="72K2tE1iyLVGwKvSBgtS-5" edge="1">
          <mxGeometry relative="1" as="geometry">
            <mxPoint x="240" y="60" as="targetPoint" />
          </mxGeometry>
        </mxCell>
        <mxCell id="72K2tE1iyLVGwKvSBgtS-5" value="" style="shape=trapezoid;perimeter=trapezoidPerimeter;whiteSpace=wrap;html=1;fixedSize=1;rotation=90;" parent="72K2tE1iyLVGwKvSBgtS-56" vertex="1">
          <mxGeometry x="100" y="30" width="120" height="60" as="geometry" />
        </mxCell>
        <mxCell id="72K2tE1iyLVGwKvSBgtS-8" value="CHANGE" style="text;html=1;align=center;verticalAlign=middle;resizable=0;points=[];autosize=1;strokeColor=none;fillColor=none;" parent="72K2tE1iyLVGwKvSBgtS-56" vertex="1">
          <mxGeometry y="15" width="70" height="30" as="geometry" />
        </mxCell>
        <mxCell id="72K2tE1iyLVGwKvSBgtS-21" style="edgeStyle=orthogonalEdgeStyle;rounded=0;orthogonalLoop=1;jettySize=auto;html=1;" parent="72K2tE1iyLVGwKvSBgtS-56" edge="1">
          <mxGeometry relative="1" as="geometry">
            <mxPoint x="130" y="29.710000000000036" as="targetPoint" />
            <mxPoint x="70" y="29.710000000000036" as="sourcePoint" />
          </mxGeometry>
        </mxCell>
        <mxCell id="72K2tE1iyLVGwKvSBgtS-22" style="edgeStyle=orthogonalEdgeStyle;rounded=0;orthogonalLoop=1;jettySize=auto;html=1;" parent="72K2tE1iyLVGwKvSBgtS-56" edge="1">
          <mxGeometry relative="1" as="geometry">
            <mxPoint x="130" y="75" as="targetPoint" />
            <mxPoint x="70" y="75" as="sourcePoint" />
          </mxGeometry>
        </mxCell>
        <mxCell id="72K2tE1iyLVGwKvSBgtS-23" value="1" style="text;html=1;align=center;verticalAlign=middle;resizable=0;points=[];autosize=1;strokeColor=none;fillColor=none;" parent="72K2tE1iyLVGwKvSBgtS-56" vertex="1">
          <mxGeometry x="125" y="60" width="30" height="30" as="geometry" />
        </mxCell>
        <mxCell id="72K2tE1iyLVGwKvSBgtS-24" value="0" style="text;html=1;align=center;verticalAlign=middle;resizable=0;points=[];autosize=1;strokeColor=none;fillColor=none;" parent="72K2tE1iyLVGwKvSBgtS-56" vertex="1">
          <mxGeometry x="125" y="15" width="30" height="30" as="geometry" />
        </mxCell>
        <mxCell id="72K2tE1iyLVGwKvSBgtS-25" value="0" style="text;html=1;align=center;verticalAlign=middle;resizable=0;points=[];autosize=1;strokeColor=none;fillColor=none;" parent="72K2tE1iyLVGwKvSBgtS-56" vertex="1">
          <mxGeometry x="30" y="60" width="30" height="30" as="geometry" />
        </mxCell>
        <mxCell id="72K2tE1iyLVGwKvSBgtS-26" value="" style="edgeStyle=none;orthogonalLoop=1;jettySize=auto;html=1;rounded=0;endArrow=none;endFill=0;" parent="72K2tE1iyLVGwKvSBgtS-56" edge="1">
          <mxGeometry width="100" relative="1" as="geometry">
            <mxPoint x="159.71000000000004" y="160" as="sourcePoint" />
            <mxPoint x="159.71000000000004" y="110" as="targetPoint" />
            <Array as="points" />
          </mxGeometry>
        </mxCell>
        <mxCell id="72K2tE1iyLVGwKvSBgtS-27" value="VERT" style="text;html=1;align=center;verticalAlign=middle;resizable=0;points=[];autosize=1;strokeColor=none;fillColor=none;" parent="72K2tE1iyLVGwKvSBgtS-56" vertex="1">
          <mxGeometry x="130" y="160" width="60" height="30" as="geometry" />
        </mxCell>
        <mxCell id="72K2tE1iyLVGwKvSBgtS-34" value="COUNT" style="text;html=1;align=center;verticalAlign=middle;resizable=0;points=[];autosize=1;strokeColor=none;fillColor=none;" parent="72K2tE1iyLVGwKvSBgtS-56" vertex="1">
          <mxGeometry x="240" y="45" width="70" height="30" as="geometry" />
        </mxCell>
        <mxCell id="72K2tE1iyLVGwKvSBgtS-57" value="" style="group" parent="1" vertex="1" connectable="0">
          <mxGeometry x="360" y="159" width="450" height="126" as="geometry" />
        </mxCell>
        <mxCell id="72K2tE1iyLVGwKvSBgtS-1" value="CURSORX" style="rounded=0;whiteSpace=wrap;html=1;" parent="72K2tE1iyLVGwKvSBgtS-57" vertex="1">
          <mxGeometry x="140" y="11" width="120" height="90" as="geometry" />
        </mxCell>
        <mxCell id="72K2tE1iyLVGwKvSBgtS-2" value="" style="triangle;whiteSpace=wrap;html=1;" parent="72K2tE1iyLVGwKvSBgtS-57" vertex="1">
          <mxGeometry x="140" y="81" width="20" height="20" as="geometry" />
        </mxCell>
        <mxCell id="72K2tE1iyLVGwKvSBgtS-3" value="" style="edgeStyle=none;orthogonalLoop=1;jettySize=auto;html=1;rounded=0;endArrow=none;endFill=0;" parent="72K2tE1iyLVGwKvSBgtS-57" edge="1">
          <mxGeometry width="100" relative="1" as="geometry">
            <mxPoint x="120" y="126" as="sourcePoint" />
            <mxPoint x="140" y="90.70999999999998" as="targetPoint" />
            <Array as="points">
              <mxPoint x="120" y="91" />
            </Array>
          </mxGeometry>
        </mxCell>
        <mxCell id="72K2tE1iyLVGwKvSBgtS-4" value="clk" style="text;html=1;align=center;verticalAlign=middle;resizable=0;points=[];autosize=1;strokeColor=none;fillColor=none;" parent="72K2tE1iyLVGwKvSBgtS-57" vertex="1">
          <mxGeometry x="80" y="96" width="40" height="30" as="geometry" />
        </mxCell>
        <mxCell id="72K2tE1iyLVGwKvSBgtS-7" style="edgeStyle=orthogonalEdgeStyle;rounded=0;orthogonalLoop=1;jettySize=auto;html=1;" parent="72K2tE1iyLVGwKvSBgtS-57" edge="1">
          <mxGeometry relative="1" as="geometry">
            <mxPoint x="140" y="31" as="targetPoint" />
            <mxPoint x="80" y="31" as="sourcePoint" />
          </mxGeometry>
        </mxCell>
        <mxCell id="72K2tE1iyLVGwKvSBgtS-9" style="edgeStyle=orthogonalEdgeStyle;rounded=0;orthogonalLoop=1;jettySize=auto;html=1;" parent="72K2tE1iyLVGwKvSBgtS-57" edge="1">
          <mxGeometry relative="1" as="geometry">
            <mxPoint x="140" y="57" as="targetPoint" />
            <mxPoint x="80" y="57" as="sourcePoint" />
          </mxGeometry>
        </mxCell>
        <mxCell id="72K2tE1iyLVGwKvSBgtS-12" value="" style="group" parent="72K2tE1iyLVGwKvSBgtS-57" vertex="1" connectable="0">
          <mxGeometry y="41" width="80" height="30" as="geometry" />
        </mxCell>
        <mxCell id="72K2tE1iyLVGwKvSBgtS-10" value="UP/DOWN" style="text;html=1;align=center;verticalAlign=middle;resizable=0;points=[];autosize=1;strokeColor=none;fillColor=none;" parent="72K2tE1iyLVGwKvSBgtS-12" vertex="1">
          <mxGeometry width="80" height="30" as="geometry" />
        </mxCell>
        <mxCell id="72K2tE1iyLVGwKvSBgtS-11" value="" style="edgeStyle=none;orthogonalLoop=1;jettySize=auto;html=1;rounded=0;endArrow=none;endFill=0;" parent="72K2tE1iyLVGwKvSBgtS-12" edge="1">
          <mxGeometry width="100" relative="1" as="geometry">
            <mxPoint x="33" y="8" as="sourcePoint" />
            <mxPoint x="69" y="8" as="targetPoint" />
            <Array as="points" />
          </mxGeometry>
        </mxCell>
        <mxCell id="72K2tE1iyLVGwKvSBgtS-13" value="" style="edgeStyle=none;orthogonalLoop=1;jettySize=auto;html=1;rounded=0;" parent="72K2tE1iyLVGwKvSBgtS-57" edge="1">
          <mxGeometry width="100" relative="1" as="geometry">
            <mxPoint x="260" y="30" as="sourcePoint" />
            <mxPoint x="320" y="30" as="targetPoint" />
            <Array as="points" />
          </mxGeometry>
        </mxCell>
        <mxCell id="72K2tE1iyLVGwKvSBgtS-14" value="/" style="text;html=1;align=center;verticalAlign=middle;resizable=0;points=[];autosize=1;strokeColor=none;fillColor=none;fontStyle=0;fontSize=16;" parent="72K2tE1iyLVGwKvSBgtS-57" vertex="1">
          <mxGeometry x="276" y="15" width="30" height="30" as="geometry" />
        </mxCell>
        <mxCell id="72K2tE1iyLVGwKvSBgtS-15" value="4" style="text;html=1;align=center;verticalAlign=middle;resizable=0;points=[];autosize=1;strokeColor=none;fillColor=none;" parent="72K2tE1iyLVGwKvSBgtS-57" vertex="1">
          <mxGeometry x="276" width="30" height="30" as="geometry" />
        </mxCell>
        <mxCell id="72K2tE1iyLVGwKvSBgtS-16" style="edgeStyle=orthogonalEdgeStyle;rounded=0;orthogonalLoop=1;jettySize=auto;html=1;" parent="72K2tE1iyLVGwKvSBgtS-57" edge="1">
          <mxGeometry relative="1" as="geometry">
            <mxPoint x="320" y="61" as="targetPoint" />
            <mxPoint x="260" y="61" as="sourcePoint" />
          </mxGeometry>
        </mxCell>
        <mxCell id="72K2tE1iyLVGwKvSBgtS-17" style="edgeStyle=orthogonalEdgeStyle;rounded=0;orthogonalLoop=1;jettySize=auto;html=1;" parent="72K2tE1iyLVGwKvSBgtS-57" edge="1">
          <mxGeometry relative="1" as="geometry">
            <mxPoint x="321" y="81" as="targetPoint" />
            <mxPoint x="261" y="81" as="sourcePoint" />
          </mxGeometry>
        </mxCell>
        <mxCell id="72K2tE1iyLVGwKvSBgtS-18" value="CURSORX_MAX" style="text;html=1;align=left;verticalAlign=middle;resizable=0;points=[];autosize=1;strokeColor=none;fillColor=none;" parent="72K2tE1iyLVGwKvSBgtS-57" vertex="1">
          <mxGeometry x="330" y="45" width="120" height="30" as="geometry" />
        </mxCell>
        <mxCell id="72K2tE1iyLVGwKvSBgtS-19" value="CURSORX_MIN" style="text;html=1;align=left;verticalAlign=middle;resizable=0;points=[];autosize=1;strokeColor=none;fillColor=none;" parent="72K2tE1iyLVGwKvSBgtS-57" vertex="1">
          <mxGeometry x="330" y="66" width="110" height="30" as="geometry" />
        </mxCell>
        <mxCell id="72K2tE1iyLVGwKvSBgtS-20" value="CURSORX" style="text;html=1;align=left;verticalAlign=middle;resizable=0;points=[];autosize=1;strokeColor=none;fillColor=none;" parent="72K2tE1iyLVGwKvSBgtS-57" vertex="1">
          <mxGeometry x="330" y="15" width="80" height="30" as="geometry" />
        </mxCell>
        <mxCell id="72K2tE1iyLVGwKvSBgtS-33" value="COUNT" style="text;html=1;align=center;verticalAlign=middle;resizable=0;points=[];autosize=1;strokeColor=none;fillColor=none;" parent="72K2tE1iyLVGwKvSBgtS-57" vertex="1">
          <mxGeometry x="5" y="15" width="70" height="30" as="geometry" />
        </mxCell>
        <mxCell id="72K2tE1iyLVGwKvSBgtS-59" value="CURSORY" style="rounded=0;whiteSpace=wrap;html=1;" parent="1" vertex="1">
          <mxGeometry x="500" y="351" width="120" height="90" as="geometry" />
        </mxCell>
        <mxCell id="72K2tE1iyLVGwKvSBgtS-60" value="" style="triangle;whiteSpace=wrap;html=1;" parent="1" vertex="1">
          <mxGeometry x="500" y="421" width="20" height="20" as="geometry" />
        </mxCell>
        <mxCell id="72K2tE1iyLVGwKvSBgtS-61" value="" style="edgeStyle=none;orthogonalLoop=1;jettySize=auto;html=1;rounded=0;endArrow=none;endFill=0;" parent="1" edge="1">
          <mxGeometry width="100" relative="1" as="geometry">
            <mxPoint x="480" y="466" as="sourcePoint" />
            <mxPoint x="500" y="430.71" as="targetPoint" />
            <Array as="points">
              <mxPoint x="480" y="431" />
            </Array>
          </mxGeometry>
        </mxCell>
        <mxCell id="72K2tE1iyLVGwKvSBgtS-62" value="clk" style="text;html=1;align=center;verticalAlign=middle;resizable=0;points=[];autosize=1;strokeColor=none;fillColor=none;" parent="1" vertex="1">
          <mxGeometry x="440" y="436" width="40" height="30" as="geometry" />
        </mxCell>
        <mxCell id="72K2tE1iyLVGwKvSBgtS-63" style="edgeStyle=orthogonalEdgeStyle;rounded=0;orthogonalLoop=1;jettySize=auto;html=1;" parent="1" edge="1">
          <mxGeometry relative="1" as="geometry">
            <mxPoint x="500" y="371" as="targetPoint" />
            <mxPoint x="440" y="371" as="sourcePoint" />
          </mxGeometry>
        </mxCell>
        <mxCell id="72K2tE1iyLVGwKvSBgtS-64" style="edgeStyle=orthogonalEdgeStyle;rounded=0;orthogonalLoop=1;jettySize=auto;html=1;" parent="1" edge="1">
          <mxGeometry relative="1" as="geometry">
            <mxPoint x="500" y="397" as="targetPoint" />
            <mxPoint x="440" y="397" as="sourcePoint" />
          </mxGeometry>
        </mxCell>
        <mxCell id="72K2tE1iyLVGwKvSBgtS-65" value="" style="group" parent="1" vertex="1" connectable="0">
          <mxGeometry x="360" y="381" width="80" height="30" as="geometry" />
        </mxCell>
        <mxCell id="72K2tE1iyLVGwKvSBgtS-66" value="UP/DOWN" style="text;html=1;align=center;verticalAlign=middle;resizable=0;points=[];autosize=1;strokeColor=none;fillColor=none;" parent="72K2tE1iyLVGwKvSBgtS-65" vertex="1">
          <mxGeometry width="80" height="30" as="geometry" />
        </mxCell>
        <mxCell id="72K2tE1iyLVGwKvSBgtS-67" value="" style="edgeStyle=none;orthogonalLoop=1;jettySize=auto;html=1;rounded=0;endArrow=none;endFill=0;" parent="72K2tE1iyLVGwKvSBgtS-65" edge="1">
          <mxGeometry width="100" relative="1" as="geometry">
            <mxPoint x="33" y="8" as="sourcePoint" />
            <mxPoint x="69" y="8" as="targetPoint" />
            <Array as="points" />
          </mxGeometry>
        </mxCell>
        <mxCell id="72K2tE1iyLVGwKvSBgtS-68" value="" style="edgeStyle=none;orthogonalLoop=1;jettySize=auto;html=1;rounded=0;" parent="1" edge="1">
          <mxGeometry width="100" relative="1" as="geometry">
            <mxPoint x="620" y="370" as="sourcePoint" />
            <mxPoint x="680" y="370" as="targetPoint" />
            <Array as="points" />
          </mxGeometry>
        </mxCell>
        <mxCell id="72K2tE1iyLVGwKvSBgtS-69" value="/" style="text;html=1;align=center;verticalAlign=middle;resizable=0;points=[];autosize=1;strokeColor=none;fillColor=none;fontStyle=0;fontSize=16;" parent="1" vertex="1">
          <mxGeometry x="636" y="355" width="30" height="30" as="geometry" />
        </mxCell>
        <mxCell id="72K2tE1iyLVGwKvSBgtS-70" value="4" style="text;html=1;align=center;verticalAlign=middle;resizable=0;points=[];autosize=1;strokeColor=none;fillColor=none;" parent="1" vertex="1">
          <mxGeometry x="636" y="340" width="30" height="30" as="geometry" />
        </mxCell>
        <mxCell id="72K2tE1iyLVGwKvSBgtS-71" style="edgeStyle=orthogonalEdgeStyle;rounded=0;orthogonalLoop=1;jettySize=auto;html=1;" parent="1" edge="1">
          <mxGeometry relative="1" as="geometry">
            <mxPoint x="680" y="401" as="targetPoint" />
            <mxPoint x="620" y="401" as="sourcePoint" />
          </mxGeometry>
        </mxCell>
        <mxCell id="72K2tE1iyLVGwKvSBgtS-72" style="edgeStyle=orthogonalEdgeStyle;rounded=0;orthogonalLoop=1;jettySize=auto;html=1;" parent="1" edge="1">
          <mxGeometry relative="1" as="geometry">
            <mxPoint x="681" y="421" as="targetPoint" />
            <mxPoint x="621" y="421" as="sourcePoint" />
          </mxGeometry>
        </mxCell>
        <mxCell id="72K2tE1iyLVGwKvSBgtS-73" value="CURSORY_MAX" style="text;html=1;align=left;verticalAlign=middle;resizable=0;points=[];autosize=1;strokeColor=none;fillColor=none;" parent="1" vertex="1">
          <mxGeometry x="690" y="385" width="120" height="30" as="geometry" />
        </mxCell>
        <mxCell id="72K2tE1iyLVGwKvSBgtS-74" value="CURSORY_MIN" style="text;html=1;align=left;verticalAlign=middle;resizable=0;points=[];autosize=1;strokeColor=none;fillColor=none;" parent="1" vertex="1">
          <mxGeometry x="690" y="406" width="110" height="30" as="geometry" />
        </mxCell>
        <mxCell id="72K2tE1iyLVGwKvSBgtS-75" value="CURSORY" style="text;html=1;align=left;verticalAlign=middle;resizable=0;points=[];autosize=1;strokeColor=none;fillColor=none;" parent="1" vertex="1">
          <mxGeometry x="690" y="355" width="80" height="30" as="geometry" />
        </mxCell>
        <mxCell id="72K2tE1iyLVGwKvSBgtS-76" value="COUNT" style="text;html=1;align=center;verticalAlign=middle;resizable=0;points=[];autosize=1;strokeColor=none;fillColor=none;" parent="1" vertex="1">
          <mxGeometry x="365" y="355" width="70" height="30" as="geometry" />
        </mxCell>
        <mxCell id="72K2tE1iyLVGwKvSBgtS-77" value="" style="group" parent="1" vertex="1" connectable="0">
          <mxGeometry x="10" y="380" width="310" height="190" as="geometry" />
        </mxCell>
        <mxCell id="72K2tE1iyLVGwKvSBgtS-78" style="edgeStyle=orthogonalEdgeStyle;rounded=0;orthogonalLoop=1;jettySize=auto;html=1;" parent="72K2tE1iyLVGwKvSBgtS-77" source="72K2tE1iyLVGwKvSBgtS-79" edge="1">
          <mxGeometry relative="1" as="geometry">
            <mxPoint x="240" y="60" as="targetPoint" />
          </mxGeometry>
        </mxCell>
        <mxCell id="72K2tE1iyLVGwKvSBgtS-79" value="" style="shape=trapezoid;perimeter=trapezoidPerimeter;whiteSpace=wrap;html=1;fixedSize=1;rotation=90;" parent="72K2tE1iyLVGwKvSBgtS-77" vertex="1">
          <mxGeometry x="100" y="30" width="120" height="60" as="geometry" />
        </mxCell>
        <mxCell id="72K2tE1iyLVGwKvSBgtS-80" value="CHANGE" style="text;html=1;align=center;verticalAlign=middle;resizable=0;points=[];autosize=1;strokeColor=none;fillColor=none;" parent="72K2tE1iyLVGwKvSBgtS-77" vertex="1">
          <mxGeometry y="15" width="70" height="30" as="geometry" />
        </mxCell>
        <mxCell id="72K2tE1iyLVGwKvSBgtS-81" style="edgeStyle=orthogonalEdgeStyle;rounded=0;orthogonalLoop=1;jettySize=auto;html=1;" parent="72K2tE1iyLVGwKvSBgtS-77" edge="1">
          <mxGeometry relative="1" as="geometry">
            <mxPoint x="130" y="29.710000000000036" as="targetPoint" />
            <mxPoint x="70" y="29.710000000000036" as="sourcePoint" />
          </mxGeometry>
        </mxCell>
        <mxCell id="72K2tE1iyLVGwKvSBgtS-82" style="edgeStyle=orthogonalEdgeStyle;rounded=0;orthogonalLoop=1;jettySize=auto;html=1;" parent="72K2tE1iyLVGwKvSBgtS-77" edge="1">
          <mxGeometry relative="1" as="geometry">
            <mxPoint x="130" y="75" as="targetPoint" />
            <mxPoint x="70" y="75" as="sourcePoint" />
          </mxGeometry>
        </mxCell>
        <mxCell id="72K2tE1iyLVGwKvSBgtS-83" value="0" style="text;html=1;align=center;verticalAlign=middle;resizable=0;points=[];autosize=1;strokeColor=none;fillColor=none;" parent="72K2tE1iyLVGwKvSBgtS-77" vertex="1">
          <mxGeometry x="125" y="60" width="30" height="30" as="geometry" />
        </mxCell>
        <mxCell id="72K2tE1iyLVGwKvSBgtS-84" value="1" style="text;html=1;align=center;verticalAlign=middle;resizable=0;points=[];autosize=1;strokeColor=none;fillColor=none;" parent="72K2tE1iyLVGwKvSBgtS-77" vertex="1">
          <mxGeometry x="125" y="15" width="30" height="30" as="geometry" />
        </mxCell>
        <mxCell id="72K2tE1iyLVGwKvSBgtS-85" value="0" style="text;html=1;align=center;verticalAlign=middle;resizable=0;points=[];autosize=1;strokeColor=none;fillColor=none;" parent="72K2tE1iyLVGwKvSBgtS-77" vertex="1">
          <mxGeometry x="30" y="60" width="30" height="30" as="geometry" />
        </mxCell>
        <mxCell id="72K2tE1iyLVGwKvSBgtS-86" value="" style="edgeStyle=none;orthogonalLoop=1;jettySize=auto;html=1;rounded=0;endArrow=none;endFill=0;" parent="72K2tE1iyLVGwKvSBgtS-77" edge="1">
          <mxGeometry width="100" relative="1" as="geometry">
            <mxPoint x="159.71000000000004" y="160" as="sourcePoint" />
            <mxPoint x="159.71000000000004" y="110" as="targetPoint" />
            <Array as="points" />
          </mxGeometry>
        </mxCell>
        <mxCell id="72K2tE1iyLVGwKvSBgtS-87" value="VERT" style="text;html=1;align=center;verticalAlign=middle;resizable=0;points=[];autosize=1;strokeColor=none;fillColor=none;" parent="72K2tE1iyLVGwKvSBgtS-77" vertex="1">
          <mxGeometry x="130" y="160" width="60" height="30" as="geometry" />
        </mxCell>
        <mxCell id="72K2tE1iyLVGwKvSBgtS-88" value="COUNT" style="text;html=1;align=center;verticalAlign=middle;resizable=0;points=[];autosize=1;strokeColor=none;fillColor=none;" parent="72K2tE1iyLVGwKvSBgtS-77" vertex="1">
          <mxGeometry x="240" y="45" width="70" height="30" as="geometry" />
        </mxCell>
        <mxCell id="AWSSkf26YjQt0E4nqvfu-4" style="edgeStyle=orthogonalEdgeStyle;rounded=0;orthogonalLoop=1;jettySize=auto;html=1;startArrow=none;startFill=0;endArrow=none;endFill=0;" edge="1" parent="1" source="AWSSkf26YjQt0E4nqvfu-5">
          <mxGeometry relative="1" as="geometry">
            <mxPoint x="561" y="311" as="targetPoint" />
          </mxGeometry>
        </mxCell>
        <mxCell id="AWSSkf26YjQt0E4nqvfu-5" value="" style="ellipse;whiteSpace=wrap;html=1;" vertex="1" parent="1">
          <mxGeometry x="556" y="261" width="10" height="10" as="geometry" />
        </mxCell>
        <mxCell id="AWSSkf26YjQt0E4nqvfu-6" value="RESET_L*" style="text;html=1;align=center;verticalAlign=middle;resizable=0;points=[];autosize=1;strokeColor=none;fillColor=none;" vertex="1" parent="1">
          <mxGeometry x="526" y="309" width="80" height="30" as="geometry" />
        </mxCell>
        <mxCell id="AWSSkf26YjQt0E4nqvfu-7" style="edgeStyle=orthogonalEdgeStyle;rounded=0;orthogonalLoop=1;jettySize=auto;html=1;startArrow=none;startFill=0;endArrow=none;endFill=0;" edge="1" parent="1" source="AWSSkf26YjQt0E4nqvfu-8">
          <mxGeometry relative="1" as="geometry">
            <mxPoint x="561" y="491" as="targetPoint" />
          </mxGeometry>
        </mxCell>
        <mxCell id="AWSSkf26YjQt0E4nqvfu-8" value="" style="ellipse;whiteSpace=wrap;html=1;" vertex="1" parent="1">
          <mxGeometry x="556" y="441" width="10" height="10" as="geometry" />
        </mxCell>
        <mxCell id="AWSSkf26YjQt0E4nqvfu-9" value="RESET_L*" style="text;html=1;align=center;verticalAlign=middle;resizable=0;points=[];autosize=1;strokeColor=none;fillColor=none;" vertex="1" parent="1">
          <mxGeometry x="526" y="489" width="80" height="30" as="geometry" />
        </mxCell>
        <mxCell id="AWSSkf26YjQt0E4nqvfu-32" value="" style="group;fillColor=#f5f5f5;fontColor=#333333;strokeColor=#666666;" vertex="1" connectable="0" parent="1">
          <mxGeometry x="381.25" y="850" width="400" height="100.57000000000016" as="geometry" />
        </mxCell>
        <mxCell id="72K2tE1iyLVGwKvSBgtS-91" style="edgeStyle=orthogonalEdgeStyle;rounded=0;orthogonalLoop=1;jettySize=auto;html=1;" parent="AWSSkf26YjQt0E4nqvfu-32" edge="1">
          <mxGeometry relative="1" as="geometry">
            <mxPoint x="290" y="31.690000000000055" as="targetPoint" />
            <mxPoint x="230" y="31.70724137931029" as="sourcePoint" />
          </mxGeometry>
        </mxCell>
        <mxCell id="72K2tE1iyLVGwKvSBgtS-92" value="VERT" style="text;html=1;align=center;verticalAlign=middle;resizable=0;points=[];autosize=1;strokeColor=none;fillColor=none;" parent="AWSSkf26YjQt0E4nqvfu-32" vertex="1">
          <mxGeometry x="170" y="16.690000000000055" width="60" height="30" as="geometry" />
        </mxCell>
        <mxCell id="AWSSkf26YjQt0E4nqvfu-12" value="" style="edgeStyle=none;orthogonalLoop=1;jettySize=auto;html=1;rounded=0;" edge="1" parent="AWSSkf26YjQt0E4nqvfu-32">
          <mxGeometry width="100" relative="1" as="geometry">
            <mxPoint x="110" y="31.12000000000012" as="sourcePoint" />
            <mxPoint x="180" y="31.12000000000012" as="targetPoint" />
            <Array as="points" />
          </mxGeometry>
        </mxCell>
        <mxCell id="AWSSkf26YjQt0E4nqvfu-13" value="RCOMMAND" style="text;html=1;align=right;verticalAlign=middle;resizable=0;points=[];autosize=1;strokeColor=none;fillColor=none;" vertex="1" parent="AWSSkf26YjQt0E4nqvfu-32">
          <mxGeometry x="150" y="11.690000000000055" width="100" height="30" as="geometry" />
        </mxCell>
        <mxCell id="AWSSkf26YjQt0E4nqvfu-14" value="/" style="text;html=1;align=center;verticalAlign=middle;resizable=0;points=[];autosize=1;strokeColor=none;fillColor=none;fontStyle=0;fontSize=16;" vertex="1" parent="AWSSkf26YjQt0E4nqvfu-32">
          <mxGeometry x="185" y="16.690000000000055" width="30" height="30" as="geometry" />
        </mxCell>
        <mxCell id="AWSSkf26YjQt0E4nqvfu-15" value="3" style="text;html=1;align=center;verticalAlign=middle;resizable=0;points=[];autosize=1;strokeColor=none;fillColor=none;" vertex="1" parent="AWSSkf26YjQt0E4nqvfu-32">
          <mxGeometry x="185" y="1.6900000000000546" width="30" height="30" as="geometry" />
        </mxCell>
        <mxCell id="AWSSkf26YjQt0E4nqvfu-16" value="DEC" style="rounded=0;whiteSpace=wrap;html=1;rotation=-90;" vertex="1" parent="AWSSkf26YjQt0E4nqvfu-32">
          <mxGeometry x="169.435" y="1.6900000000000546" width="61.13" height="57.75" as="geometry" />
        </mxCell>
        <mxCell id="AWSSkf26YjQt0E4nqvfu-17" value="VERT &amp;lt;= &#39;1&#39; WHEN (RCOMMAND = &quot;000&quot;) OR (RCOMMAND = &quot;001&quot;)" style="text;html=1;align=center;verticalAlign=middle;resizable=0;points=[];autosize=1;strokeColor=none;fillColor=none;" vertex="1" parent="AWSSkf26YjQt0E4nqvfu-32">
          <mxGeometry y="70.57000000000016" width="400" height="30" as="geometry" />
        </mxCell>
        <mxCell id="AWSSkf26YjQt0E4nqvfu-33" value="" style="group;fillColor=#f5f5f5;fontColor=#333333;strokeColor=#666666;" vertex="1" connectable="0" parent="1">
          <mxGeometry x="358.75" y="960" width="452.5" height="95.81000000000017" as="geometry" />
        </mxCell>
        <mxCell id="AWSSkf26YjQt0E4nqvfu-24" style="edgeStyle=orthogonalEdgeStyle;rounded=0;orthogonalLoop=1;jettySize=auto;html=1;" edge="1" parent="AWSSkf26YjQt0E4nqvfu-33">
          <mxGeometry relative="1" as="geometry">
            <mxPoint x="300.01" y="31.690000000000055" as="targetPoint" />
            <mxPoint x="240.01" y="31.70724137931029" as="sourcePoint" />
          </mxGeometry>
        </mxCell>
        <mxCell id="AWSSkf26YjQt0E4nqvfu-25" value="UP_DOWN" style="text;html=1;align=center;verticalAlign=middle;resizable=0;points=[];autosize=1;strokeColor=none;fillColor=none;" vertex="1" parent="AWSSkf26YjQt0E4nqvfu-33">
          <mxGeometry x="182.5" y="16.690000000000055" width="80" height="30" as="geometry" />
        </mxCell>
        <mxCell id="AWSSkf26YjQt0E4nqvfu-26" value="" style="edgeStyle=none;orthogonalLoop=1;jettySize=auto;html=1;rounded=0;" edge="1" parent="AWSSkf26YjQt0E4nqvfu-33">
          <mxGeometry width="100" relative="1" as="geometry">
            <mxPoint x="120.00999999999999" y="31.12000000000012" as="sourcePoint" />
            <mxPoint x="190.01" y="31.12000000000012" as="targetPoint" />
            <Array as="points" />
          </mxGeometry>
        </mxCell>
        <mxCell id="AWSSkf26YjQt0E4nqvfu-27" value="RCOMMAND" style="text;html=1;align=right;verticalAlign=middle;resizable=0;points=[];autosize=1;strokeColor=none;fillColor=none;" vertex="1" parent="AWSSkf26YjQt0E4nqvfu-33">
          <mxGeometry x="172.5" y="11.690000000000055" width="100" height="30" as="geometry" />
        </mxCell>
        <mxCell id="AWSSkf26YjQt0E4nqvfu-28" value="/" style="text;html=1;align=center;verticalAlign=middle;resizable=0;points=[];autosize=1;strokeColor=none;fillColor=none;fontStyle=0;fontSize=16;" vertex="1" parent="AWSSkf26YjQt0E4nqvfu-33">
          <mxGeometry x="207.5" y="16.690000000000055" width="30" height="30" as="geometry" />
        </mxCell>
        <mxCell id="AWSSkf26YjQt0E4nqvfu-29" value="3" style="text;html=1;align=center;verticalAlign=middle;resizable=0;points=[];autosize=1;strokeColor=none;fillColor=none;" vertex="1" parent="AWSSkf26YjQt0E4nqvfu-33">
          <mxGeometry x="207.5" y="1.6900000000000546" width="30" height="30" as="geometry" />
        </mxCell>
        <mxCell id="AWSSkf26YjQt0E4nqvfu-30" value="DEC" style="rounded=0;whiteSpace=wrap;html=1;rotation=-90;" vertex="1" parent="AWSSkf26YjQt0E4nqvfu-33">
          <mxGeometry x="191.935" y="1.6900000000000546" width="61.13" height="57.75" as="geometry" />
        </mxCell>
        <mxCell id="AWSSkf26YjQt0E4nqvfu-31" value="UP_DOWN &amp;lt;= &#39;1&#39; when (RCOMMAND = &quot;000&quot;) OR (RCOMMAND = &quot;100&quot;) else &#39;0&#39;" style="text;html=1;align=center;verticalAlign=middle;resizable=0;points=[];autosize=1;strokeColor=none;fillColor=none;" vertex="1" parent="AWSSkf26YjQt0E4nqvfu-33">
          <mxGeometry x="-7.5" y="65.81000000000017" width="460" height="30" as="geometry" />
        </mxCell>
        <mxCell id="AWSSkf26YjQt0E4nqvfu-34" value="" style="group;fillColor=#f5f5f5;fontColor=#333333;strokeColor=#666666;" vertex="1" connectable="0" parent="1">
          <mxGeometry x="358.75" y="1063" width="445" height="95.81000000000017" as="geometry" />
        </mxCell>
        <mxCell id="AWSSkf26YjQt0E4nqvfu-35" style="edgeStyle=orthogonalEdgeStyle;rounded=0;orthogonalLoop=1;jettySize=auto;html=1;" edge="1" parent="AWSSkf26YjQt0E4nqvfu-34">
          <mxGeometry relative="1" as="geometry">
            <mxPoint x="300.01" y="31.690000000000055" as="targetPoint" />
            <mxPoint x="240.01" y="31.70724137931029" as="sourcePoint" />
          </mxGeometry>
        </mxCell>
        <mxCell id="AWSSkf26YjQt0E4nqvfu-36" value="CURSOR_CMD" style="text;html=1;align=center;verticalAlign=middle;resizable=0;points=[];autosize=1;strokeColor=none;fillColor=none;" vertex="1" parent="AWSSkf26YjQt0E4nqvfu-34">
          <mxGeometry x="167.5" y="16.690000000000055" width="110" height="30" as="geometry" />
        </mxCell>
        <mxCell id="AWSSkf26YjQt0E4nqvfu-37" value="" style="edgeStyle=none;orthogonalLoop=1;jettySize=auto;html=1;rounded=0;" edge="1" parent="AWSSkf26YjQt0E4nqvfu-34">
          <mxGeometry width="100" relative="1" as="geometry">
            <mxPoint x="120.00999999999999" y="31.12000000000012" as="sourcePoint" />
            <mxPoint x="190.01" y="31.12000000000012" as="targetPoint" />
            <Array as="points" />
          </mxGeometry>
        </mxCell>
        <mxCell id="AWSSkf26YjQt0E4nqvfu-38" value="RCOMMAND" style="text;html=1;align=right;verticalAlign=middle;resizable=0;points=[];autosize=1;strokeColor=none;fillColor=none;" vertex="1" parent="AWSSkf26YjQt0E4nqvfu-34">
          <mxGeometry x="172.5" y="11.690000000000055" width="100" height="30" as="geometry" />
        </mxCell>
        <mxCell id="AWSSkf26YjQt0E4nqvfu-39" value="/" style="text;html=1;align=center;verticalAlign=middle;resizable=0;points=[];autosize=1;strokeColor=none;fillColor=none;fontStyle=0;fontSize=16;" vertex="1" parent="AWSSkf26YjQt0E4nqvfu-34">
          <mxGeometry x="207.5" y="16.690000000000055" width="30" height="30" as="geometry" />
        </mxCell>
        <mxCell id="AWSSkf26YjQt0E4nqvfu-40" value="3" style="text;html=1;align=center;verticalAlign=middle;resizable=0;points=[];autosize=1;strokeColor=none;fillColor=none;" vertex="1" parent="AWSSkf26YjQt0E4nqvfu-34">
          <mxGeometry x="207.5" y="1.6900000000000546" width="30" height="30" as="geometry" />
        </mxCell>
        <mxCell id="AWSSkf26YjQt0E4nqvfu-41" value="DEC" style="rounded=0;whiteSpace=wrap;html=1;rotation=-90;" vertex="1" parent="AWSSkf26YjQt0E4nqvfu-34">
          <mxGeometry x="191.935" y="1.6900000000000546" width="61.13" height="57.75" as="geometry" />
        </mxCell>
        <mxCell id="AWSSkf26YjQt0E4nqvfu-42" value="CURSOR_CMD &amp;lt;= &#39;1&#39; when(RCOMMAND /= &quot;100&quot;) else &#39;0&#39;" style="text;html=1;align=center;verticalAlign=middle;resizable=0;points=[];autosize=1;strokeColor=none;fillColor=none;" vertex="1" parent="AWSSkf26YjQt0E4nqvfu-34">
          <mxGeometry x="52.5" y="65.81000000000017" width="340" height="30" as="geometry" />
        </mxCell>
        <mxCell id="AWSSkf26YjQt0E4nqvfu-44" value="" style="group" vertex="1" connectable="0" parent="1">
          <mxGeometry x="15" y="700" width="510" height="170" as="geometry" />
        </mxCell>
        <mxCell id="NXucoVaHf7Mef-hhndhN-1" value="RCOMMAND" style="rounded=0;whiteSpace=wrap;html=1;" parent="AWSSkf26YjQt0E4nqvfu-44" vertex="1">
          <mxGeometry x="190" y="13.75" width="140" height="90" as="geometry" />
        </mxCell>
        <mxCell id="NXucoVaHf7Mef-hhndhN-2" value="" style="edgeStyle=none;orthogonalLoop=1;jettySize=auto;html=1;rounded=0;" parent="AWSSkf26YjQt0E4nqvfu-44" edge="1">
          <mxGeometry width="100" relative="1" as="geometry">
            <mxPoint x="120" y="29.430000000000064" as="sourcePoint" />
            <mxPoint x="190" y="29.430000000000064" as="targetPoint" />
            <Array as="points" />
          </mxGeometry>
        </mxCell>
        <mxCell id="NXucoVaHf7Mef-hhndhN-3" value="COMMAND" style="text;html=1;align=right;verticalAlign=middle;resizable=0;points=[];autosize=1;strokeColor=none;fillColor=none;" parent="AWSSkf26YjQt0E4nqvfu-44" vertex="1">
          <mxGeometry x="20" y="10" width="90" height="30" as="geometry" />
        </mxCell>
        <mxCell id="NXucoVaHf7Mef-hhndhN-4" value="" style="triangle;whiteSpace=wrap;html=1;" parent="AWSSkf26YjQt0E4nqvfu-44" vertex="1">
          <mxGeometry x="190" y="78.75" width="20" height="20" as="geometry" />
        </mxCell>
        <mxCell id="NXucoVaHf7Mef-hhndhN-5" value="" style="edgeStyle=none;orthogonalLoop=1;jettySize=auto;html=1;rounded=0;" parent="AWSSkf26YjQt0E4nqvfu-44" edge="1">
          <mxGeometry width="100" relative="1" as="geometry">
            <mxPoint x="170" y="123.75" as="sourcePoint" />
            <mxPoint x="190" y="88.46000000000004" as="targetPoint" />
            <Array as="points">
              <mxPoint x="170" y="88.75" />
            </Array>
          </mxGeometry>
        </mxCell>
        <mxCell id="NXucoVaHf7Mef-hhndhN-6" value="clk" style="text;html=1;align=center;verticalAlign=middle;resizable=0;points=[];autosize=1;strokeColor=none;fillColor=none;" parent="AWSSkf26YjQt0E4nqvfu-44" vertex="1">
          <mxGeometry x="130" y="93.75" width="40" height="30" as="geometry" />
        </mxCell>
        <mxCell id="NXucoVaHf7Mef-hhndhN-7" value="" style="edgeStyle=none;orthogonalLoop=1;jettySize=auto;html=1;rounded=0;" parent="AWSSkf26YjQt0E4nqvfu-44" edge="1">
          <mxGeometry width="100" relative="1" as="geometry">
            <mxPoint x="330" y="41.25" as="sourcePoint" />
            <mxPoint x="400" y="41.25" as="targetPoint" />
            <Array as="points" />
          </mxGeometry>
        </mxCell>
        <mxCell id="NXucoVaHf7Mef-hhndhN-8" value="/" style="text;html=1;align=center;verticalAlign=middle;resizable=0;points=[];autosize=1;strokeColor=none;fillColor=none;fontStyle=0;fontSize=16;" parent="AWSSkf26YjQt0E4nqvfu-44" vertex="1">
          <mxGeometry x="346" y="26.25" width="30" height="30" as="geometry" />
        </mxCell>
        <mxCell id="NXucoVaHf7Mef-hhndhN-9" value="3" style="text;html=1;align=center;verticalAlign=middle;resizable=0;points=[];autosize=1;strokeColor=none;fillColor=none;" parent="AWSSkf26YjQt0E4nqvfu-44" vertex="1">
          <mxGeometry x="346" y="11.25" width="30" height="30" as="geometry" />
        </mxCell>
        <mxCell id="NXucoVaHf7Mef-hhndhN-10" value="RCOMMAND" style="text;html=1;align=left;verticalAlign=middle;resizable=0;points=[];autosize=1;strokeColor=none;fillColor=none;" parent="AWSSkf26YjQt0E4nqvfu-44" vertex="1">
          <mxGeometry x="410" y="21.25" width="100" height="30" as="geometry" />
        </mxCell>
        <mxCell id="NXucoVaHf7Mef-hhndhN-13" value="" style="edgeStyle=none;orthogonalLoop=1;jettySize=auto;html=1;rounded=0;" parent="AWSSkf26YjQt0E4nqvfu-44" edge="1">
          <mxGeometry width="100" relative="1" as="geometry">
            <mxPoint x="120" y="51.930000000000064" as="sourcePoint" />
            <mxPoint x="190" y="51.930000000000064" as="targetPoint" />
            <Array as="points" />
          </mxGeometry>
        </mxCell>
        <mxCell id="NXucoVaHf7Mef-hhndhN-14" value="LD_COMMAND" style="text;html=1;align=right;verticalAlign=middle;resizable=0;points=[];autosize=1;strokeColor=none;fillColor=none;" parent="AWSSkf26YjQt0E4nqvfu-44" vertex="1">
          <mxGeometry y="32.5" width="110" height="30" as="geometry" />
        </mxCell>
        <mxCell id="AWSSkf26YjQt0E4nqvfu-1" style="edgeStyle=orthogonalEdgeStyle;rounded=0;orthogonalLoop=1;jettySize=auto;html=1;startArrow=none;startFill=0;endArrow=none;endFill=0;" edge="1" parent="AWSSkf26YjQt0E4nqvfu-44" source="AWSSkf26YjQt0E4nqvfu-2">
          <mxGeometry relative="1" as="geometry">
            <mxPoint x="259" y="140" as="targetPoint" />
          </mxGeometry>
        </mxCell>
        <mxCell id="AWSSkf26YjQt0E4nqvfu-2" value="" style="ellipse;whiteSpace=wrap;html=1;" vertex="1" parent="AWSSkf26YjQt0E4nqvfu-44">
          <mxGeometry x="254" y="101.75" width="10" height="10" as="geometry" />
        </mxCell>
        <mxCell id="AWSSkf26YjQt0E4nqvfu-3" value="RESET_L*" style="text;html=1;align=center;verticalAlign=middle;resizable=0;points=[];autosize=1;strokeColor=none;fillColor=none;" vertex="1" parent="AWSSkf26YjQt0E4nqvfu-44">
          <mxGeometry x="220" y="140" width="80" height="30" as="geometry" />
        </mxCell>
        <mxCell id="AWSSkf26YjQt0E4nqvfu-10" value="/" style="text;html=1;align=center;verticalAlign=middle;resizable=0;points=[];autosize=1;strokeColor=none;fillColor=none;fontStyle=0;fontSize=16;" vertex="1" parent="AWSSkf26YjQt0E4nqvfu-44">
          <mxGeometry x="135" y="15" width="30" height="30" as="geometry" />
        </mxCell>
        <mxCell id="AWSSkf26YjQt0E4nqvfu-11" value="3" style="text;html=1;align=center;verticalAlign=middle;resizable=0;points=[];autosize=1;strokeColor=none;fillColor=none;" vertex="1" parent="AWSSkf26YjQt0E4nqvfu-44">
          <mxGeometry x="135" width="30" height="30" as="geometry" />
        </mxCell>
        <mxCell id="AWSSkf26YjQt0E4nqvfu-75" value="" style="group;fillColor=#f8cecc;strokeColor=#b85450;" vertex="1" connectable="0" parent="1">
          <mxGeometry x="136" y="-279.9964429530203" width="484" height="256.0528859060403" as="geometry" />
        </mxCell>
        <mxCell id="AWSSkf26YjQt0E4nqvfu-46" value="/" style="text;html=1;align=center;verticalAlign=middle;resizable=0;points=[];autosize=1;strokeColor=none;fillColor=none;fontStyle=1;container=0;" vertex="1" parent="AWSSkf26YjQt0E4nqvfu-75">
          <mxGeometry x="111" y="16.375704697986748" width="30" height="30" as="geometry" />
        </mxCell>
        <mxCell id="AWSSkf26YjQt0E4nqvfu-47" value="" style="edgeStyle=none;orthogonalLoop=1;jettySize=auto;html=1;rounded=0;" edge="1" parent="AWSSkf26YjQt0E4nqvfu-75">
          <mxGeometry width="100" relative="1" as="geometry">
            <mxPoint x="111" y="32.080000000000155" as="sourcePoint" />
            <mxPoint x="161" y="32.080000000000155" as="targetPoint" />
            <Array as="points" />
          </mxGeometry>
        </mxCell>
        <mxCell id="AWSSkf26YjQt0E4nqvfu-48" value="COMMAND" style="text;html=1;align=right;verticalAlign=middle;resizable=0;points=[];autosize=1;strokeColor=none;fillColor=none;container=0;" vertex="1" parent="AWSSkf26YjQt0E4nqvfu-75">
          <mxGeometry x="12" y="16.37348993288606" width="90" height="30" as="geometry" />
        </mxCell>
        <mxCell id="AWSSkf26YjQt0E4nqvfu-49" value="" style="edgeStyle=none;orthogonalLoop=1;jettySize=auto;html=1;rounded=0;" edge="1" parent="AWSSkf26YjQt0E4nqvfu-75">
          <mxGeometry width="100" relative="1" as="geometry">
            <mxPoint x="112" y="59.643557046979936" as="sourcePoint" />
            <mxPoint x="162" y="59.643557046979936" as="targetPoint" />
            <Array as="points" />
          </mxGeometry>
        </mxCell>
        <mxCell id="AWSSkf26YjQt0E4nqvfu-50" value="OUT_CMD" style="text;html=1;align=right;verticalAlign=middle;resizable=0;points=[];autosize=1;strokeColor=none;fillColor=none;container=0;" vertex="1" parent="AWSSkf26YjQt0E4nqvfu-75">
          <mxGeometry x="22" y="44.379261744966584" width="80" height="30" as="geometry" />
        </mxCell>
        <mxCell id="AWSSkf26YjQt0E4nqvfu-51" value="3" style="text;html=1;align=center;verticalAlign=middle;resizable=0;points=[];autosize=1;strokeColor=none;fillColor=none;container=0;" vertex="1" parent="AWSSkf26YjQt0E4nqvfu-75">
          <mxGeometry x="111" y="2.0000000000001137" width="30" height="30" as="geometry" />
        </mxCell>
        <mxCell id="AWSSkf26YjQt0E4nqvfu-52" value="NONO_CURSOR" style="whiteSpace=wrap;html=1;" vertex="1" parent="AWSSkf26YjQt0E4nqvfu-75">
          <mxGeometry x="162" y="8.466442953020305" width="140" height="161.53" as="geometry" />
        </mxCell>
        <mxCell id="AWSSkf26YjQt0E4nqvfu-53" value="/" style="text;html=1;align=center;verticalAlign=middle;resizable=0;points=[];autosize=1;strokeColor=none;fillColor=none;fontStyle=1;container=0;" vertex="1" parent="AWSSkf26YjQt0E4nqvfu-75">
          <mxGeometry x="302" y="14.375704697986748" width="30" height="30" as="geometry" />
        </mxCell>
        <mxCell id="AWSSkf26YjQt0E4nqvfu-54" value="" style="edgeStyle=none;orthogonalLoop=1;jettySize=auto;html=1;rounded=0;" edge="1" parent="AWSSkf26YjQt0E4nqvfu-75">
          <mxGeometry width="100" relative="1" as="geometry">
            <mxPoint x="302" y="30.080000000000155" as="sourcePoint" />
            <mxPoint x="352" y="30.080000000000155" as="targetPoint" />
            <Array as="points" />
          </mxGeometry>
        </mxCell>
        <mxCell id="AWSSkf26YjQt0E4nqvfu-55" value="CURSOR_POSX" style="text;html=1;align=left;verticalAlign=middle;resizable=0;points=[];autosize=1;strokeColor=none;fillColor=none;container=0;" vertex="1" parent="AWSSkf26YjQt0E4nqvfu-75">
          <mxGeometry x="354" y="16.37348993288606" width="120" height="30" as="geometry" />
        </mxCell>
        <mxCell id="AWSSkf26YjQt0E4nqvfu-56" value="4" style="text;html=1;align=center;verticalAlign=middle;resizable=0;points=[];autosize=1;strokeColor=none;fillColor=none;container=0;" vertex="1" parent="AWSSkf26YjQt0E4nqvfu-75">
          <mxGeometry x="302" width="30" height="30" as="geometry" />
        </mxCell>
        <mxCell id="AWSSkf26YjQt0E4nqvfu-57" value="/" style="text;html=1;align=center;verticalAlign=middle;resizable=0;points=[];autosize=1;strokeColor=none;fillColor=none;fontStyle=1;container=0;" vertex="1" parent="AWSSkf26YjQt0E4nqvfu-75">
          <mxGeometry x="302.5" y="44.37570469798675" width="30" height="30" as="geometry" />
        </mxCell>
        <mxCell id="AWSSkf26YjQt0E4nqvfu-58" value="" style="edgeStyle=none;orthogonalLoop=1;jettySize=auto;html=1;rounded=0;" edge="1" parent="AWSSkf26YjQt0E4nqvfu-75">
          <mxGeometry width="100" relative="1" as="geometry">
            <mxPoint x="302.5" y="60.080000000000155" as="sourcePoint" />
            <mxPoint x="352.5" y="60.080000000000155" as="targetPoint" />
            <Array as="points" />
          </mxGeometry>
        </mxCell>
        <mxCell id="AWSSkf26YjQt0E4nqvfu-59" value="CURSOR_POSY" style="text;html=1;align=left;verticalAlign=middle;resizable=0;points=[];autosize=1;strokeColor=none;fillColor=none;container=0;" vertex="1" parent="AWSSkf26YjQt0E4nqvfu-75">
          <mxGeometry x="354.5" y="46.37348993288606" width="120" height="30" as="geometry" />
        </mxCell>
        <mxCell id="AWSSkf26YjQt0E4nqvfu-60" value="4" style="text;html=1;align=center;verticalAlign=middle;resizable=0;points=[];autosize=1;strokeColor=none;fillColor=none;container=0;" vertex="1" parent="AWSSkf26YjQt0E4nqvfu-75">
          <mxGeometry x="302.5" y="30" width="30" height="30" as="geometry" />
        </mxCell>
        <mxCell id="AWSSkf26YjQt0E4nqvfu-61" value="" style="edgeStyle=none;orthogonalLoop=1;jettySize=auto;html=1;rounded=0;" edge="1" parent="AWSSkf26YjQt0E4nqvfu-75">
          <mxGeometry width="100" relative="1" as="geometry">
            <mxPoint x="302.5" y="91.99355704697996" as="sourcePoint" />
            <mxPoint x="352.5" y="91.99355704697996" as="targetPoint" />
            <Array as="points" />
          </mxGeometry>
        </mxCell>
        <mxCell id="AWSSkf26YjQt0E4nqvfu-62" value="UPDATE_CURSOR" style="text;html=1;align=left;verticalAlign=middle;resizable=0;points=[];autosize=1;strokeColor=none;fillColor=none;container=0;" vertex="1" parent="AWSSkf26YjQt0E4nqvfu-75">
          <mxGeometry x="354" y="78.99348993288606" width="130" height="30" as="geometry" />
        </mxCell>
        <mxCell id="AWSSkf26YjQt0E4nqvfu-63" value="" style="edgeStyle=none;orthogonalLoop=1;jettySize=auto;html=1;rounded=0;" edge="1" parent="AWSSkf26YjQt0E4nqvfu-75">
          <mxGeometry width="100" relative="1" as="geometry">
            <mxPoint x="110" y="91.99355704697996" as="sourcePoint" />
            <mxPoint x="160" y="91.99355704697996" as="targetPoint" />
            <Array as="points" />
          </mxGeometry>
        </mxCell>
        <mxCell id="AWSSkf26YjQt0E4nqvfu-64" value="DONE_UPDATE" style="text;html=1;align=center;verticalAlign=middle;resizable=0;points=[];autosize=1;strokeColor=none;fillColor=none;" vertex="1" parent="AWSSkf26YjQt0E4nqvfu-75">
          <mxGeometry y="74.37644295302027" width="110" height="30" as="geometry" />
        </mxCell>
        <mxCell id="AWSSkf26YjQt0E4nqvfu-65" value="" style="edgeStyle=none;orthogonalLoop=1;jettySize=auto;html=1;rounded=0;" edge="1" parent="AWSSkf26YjQt0E4nqvfu-75">
          <mxGeometry width="100" relative="1" as="geometry">
            <mxPoint x="302" y="121.99355704697996" as="sourcePoint" />
            <mxPoint x="352" y="121.99355704697996" as="targetPoint" />
            <Array as="points" />
          </mxGeometry>
        </mxCell>
        <mxCell id="AWSSkf26YjQt0E4nqvfu-66" value="TOGGLE_CURSOR" style="text;html=1;align=left;verticalAlign=middle;resizable=0;points=[];autosize=1;strokeColor=none;fillColor=none;container=0;" vertex="1" parent="AWSSkf26YjQt0E4nqvfu-75">
          <mxGeometry x="353.5" y="108.99348993288618" width="130" height="30" as="geometry" />
        </mxCell>
        <mxCell id="AWSSkf26YjQt0E4nqvfu-67" value="" style="edgeStyle=none;orthogonalLoop=1;jettySize=auto;html=1;rounded=0;" edge="1" parent="AWSSkf26YjQt0E4nqvfu-75">
          <mxGeometry width="100" relative="1" as="geometry">
            <mxPoint x="110" y="119.61355704697985" as="sourcePoint" />
            <mxPoint x="160" y="119.61355704697985" as="targetPoint" />
            <Array as="points" />
          </mxGeometry>
        </mxCell>
        <mxCell id="AWSSkf26YjQt0E4nqvfu-68" value="DONE_TOGGLE" style="text;html=1;align=center;verticalAlign=middle;resizable=0;points=[];autosize=1;strokeColor=none;fillColor=none;" vertex="1" parent="AWSSkf26YjQt0E4nqvfu-75">
          <mxGeometry y="101.99644295302028" width="110" height="30" as="geometry" />
        </mxCell>
        <mxCell id="AWSSkf26YjQt0E4nqvfu-69" style="edgeStyle=orthogonalEdgeStyle;rounded=0;orthogonalLoop=1;jettySize=auto;html=1;startArrow=none;startFill=0;endArrow=none;endFill=0;" edge="1" parent="AWSSkf26YjQt0E4nqvfu-75" source="AWSSkf26YjQt0E4nqvfu-70">
          <mxGeometry relative="1" as="geometry">
            <mxPoint x="229" y="228.38845637583904" as="targetPoint" />
          </mxGeometry>
        </mxCell>
        <mxCell id="AWSSkf26YjQt0E4nqvfu-70" value="" style="ellipse;whiteSpace=wrap;html=1;container=0;" vertex="1" parent="AWSSkf26YjQt0E4nqvfu-75">
          <mxGeometry x="224" y="169.99644295302028" width="10" height="10.28" as="geometry" />
        </mxCell>
        <mxCell id="AWSSkf26YjQt0E4nqvfu-71" value="RESET_L*" style="text;html=1;align=center;verticalAlign=middle;resizable=0;points=[];autosize=1;strokeColor=none;fillColor=none;container=0;" vertex="1" parent="AWSSkf26YjQt0E4nqvfu-75">
          <mxGeometry x="194" y="226.05288590604027" width="80" height="30" as="geometry" />
        </mxCell>
        <mxCell id="AWSSkf26YjQt0E4nqvfu-72" value="" style="triangle;whiteSpace=wrap;html=1;container=0;" vertex="1" parent="AWSSkf26YjQt0E4nqvfu-75">
          <mxGeometry x="162" y="144.9945637583894" width="20" height="23.355704697986575" as="geometry" />
        </mxCell>
        <mxCell id="AWSSkf26YjQt0E4nqvfu-73" value="" style="edgeStyle=none;orthogonalLoop=1;jettySize=auto;html=1;rounded=0;endArrow=none;endFill=0;entryX=0;entryY=0.5;entryDx=0;entryDy=0;" edge="1" parent="AWSSkf26YjQt0E4nqvfu-75" target="AWSSkf26YjQt0E4nqvfu-72">
          <mxGeometry width="100" relative="1" as="geometry">
            <mxPoint x="142" y="197.54489932885917" as="sourcePoint" />
            <mxPoint x="162" y="156.3337583892619" as="targetPoint" />
            <Array as="points">
              <mxPoint x="142" y="157.27644295302025" />
            </Array>
          </mxGeometry>
        </mxCell>
        <mxCell id="AWSSkf26YjQt0E4nqvfu-74" value="clk" style="text;html=1;align=center;verticalAlign=middle;resizable=0;points=[];autosize=1;strokeColor=none;fillColor=none;container=0;" vertex="1" parent="AWSSkf26YjQt0E4nqvfu-75">
          <mxGeometry x="102" y="162.51134228187925" width="40" height="30" as="geometry" />
        </mxCell>
      </root>
    </mxGraphModel>
  </diagram>
</mxfile>
